<svg xmlns="http://www.w3.org/2000/svg" width="128" height="128" viewBox="0 0 128 128">
  <defs>
    <style>
      .cls-1 {
        fill: #e0e0e0;
        fill-rule: evenodd;
      }
    </style>
  </defs>
  <path id="apc_driver" class="cls-1" d="M64,6.009A57.991,57.991,0,1,0,121.991,64,57.991,57.991,0,0,0,64,6.009Zm40.019,74.9A43.558,43.558,0,1,1,107.435,64,43.28,43.28,0,0,1,104.019,80.909ZM64,27.709A36.291,36.291,0,1,0,100.291,64,36.291,36.291,0,0,0,64,27.709ZM61.279,57.43h5.443l3.849,3.848v5.443L66.721,70.57H61.279L57.43,66.721V61.279ZM48,74.952l-6.569,9.684A30.473,30.473,0,0,1,33.415,64c0-.575.017-1.145,0.049-1.712l10.9,2.877c1.377,0.674,2.11,1.577,3.257,4.572C48.658,72.431,48.371,74.08,48,74.952ZM47.328,51.971l-10.15-2.678a30.638,30.638,0,0,1,19.946-15.1V44.773a6.843,6.843,0,0,1-2.752,4.16C50.735,51.661,50.477,52.178,47.328,51.971ZM64,94.585a30.5,30.5,0,0,1-11.481-2.23l5.245-7.731c1.859-2.2,2.319-2.881,6.732-3C69.244,81.5,70.2,83.75,70.2,83.75l0.032,0.014,5.7,8.4A30.485,30.485,0,0,1,64,94.585Zm9.393-45.652a6.84,6.84,0,0,1-2.757-4.184V34.14a30.632,30.632,0,0,1,20.154,15.1L80.43,51.971C77.289,52.178,77.028,51.659,73.393,48.933ZM86.9,84.266L80.548,74.9c-0.362-.885-0.617-2.521.393-5.159,1.487-3.884,2.28-4.251,4.682-5.161l8.909-2.35c0.034,0.587.052,1.178,0.052,1.774A30.467,30.467,0,0,1,86.9,84.266Z"/>
</svg>
